<mxfile host="app.diagrams.net" modified="2021-10-01T06:03:05.760Z" agent="5.0 (Windows)" etag="E6gi7Eh0B8gVgeq4nTDK" version="15.3.8" type="github">
  <diagram id="t49g7zartAsRad201b6j" name="Page-1">
    <mxGraphModel dx="1230" dy="685" grid="1" gridSize="10" guides="1" tooltips="1" connect="1" arrows="1" fold="1" page="1" pageScale="1" pageWidth="827" pageHeight="1169" math="0" shadow="0">
      <root>
        <mxCell id="0" />
        <mxCell id="1" parent="0" />
        <mxCell id="qcqsX-OKh-i5RfkpB1eP-3" value="" style="edgeStyle=orthogonalEdgeStyle;rounded=0;orthogonalLoop=1;jettySize=auto;html=1;" edge="1" parent="1" source="qcqsX-OKh-i5RfkpB1eP-1">
          <mxGeometry relative="1" as="geometry">
            <mxPoint x="402" y="270" as="targetPoint" />
          </mxGeometry>
        </mxCell>
        <mxCell id="qcqsX-OKh-i5RfkpB1eP-1" value="Начало" style="rounded=1;whiteSpace=wrap;html=1;arcSize=50;" vertex="1" parent="1">
          <mxGeometry x="354" y="220" width="96" height="20" as="geometry" />
        </mxCell>
        <mxCell id="qcqsX-OKh-i5RfkpB1eP-7" value="" style="edgeStyle=orthogonalEdgeStyle;rounded=0;orthogonalLoop=1;jettySize=auto;html=1;" edge="1" parent="1" source="qcqsX-OKh-i5RfkpB1eP-4" target="qcqsX-OKh-i5RfkpB1eP-6">
          <mxGeometry relative="1" as="geometry" />
        </mxCell>
        <mxCell id="qcqsX-OKh-i5RfkpB1eP-4" value="Ввод A B C" style="shape=parallelogram;perimeter=parallelogramPerimeter;whiteSpace=wrap;html=1;fixedSize=1;" vertex="1" parent="1">
          <mxGeometry x="342" y="270" width="120" height="20" as="geometry" />
        </mxCell>
        <mxCell id="qcqsX-OKh-i5RfkpB1eP-9" value="" style="edgeStyle=orthogonalEdgeStyle;rounded=0;orthogonalLoop=1;jettySize=auto;html=1;" edge="1" parent="1" source="qcqsX-OKh-i5RfkpB1eP-6" target="qcqsX-OKh-i5RfkpB1eP-8">
          <mxGeometry relative="1" as="geometry" />
        </mxCell>
        <mxCell id="qcqsX-OKh-i5RfkpB1eP-6" value="D=B*B-4*A*C" style="whiteSpace=wrap;html=1;" vertex="1" parent="1">
          <mxGeometry x="342" y="310" width="120" height="20" as="geometry" />
        </mxCell>
        <mxCell id="qcqsX-OKh-i5RfkpB1eP-11" value="" style="edgeStyle=orthogonalEdgeStyle;rounded=0;orthogonalLoop=1;jettySize=auto;html=1;" edge="1" parent="1" source="qcqsX-OKh-i5RfkpB1eP-8" target="qcqsX-OKh-i5RfkpB1eP-10">
          <mxGeometry relative="1" as="geometry" />
        </mxCell>
        <mxCell id="qcqsX-OKh-i5RfkpB1eP-16" value="" style="edgeStyle=orthogonalEdgeStyle;rounded=0;orthogonalLoop=1;jettySize=auto;html=1;" edge="1" parent="1" source="qcqsX-OKh-i5RfkpB1eP-8" target="qcqsX-OKh-i5RfkpB1eP-15">
          <mxGeometry relative="1" as="geometry" />
        </mxCell>
        <mxCell id="qcqsX-OKh-i5RfkpB1eP-8" value="D&amp;gt;0" style="rhombus;whiteSpace=wrap;html=1;" vertex="1" parent="1">
          <mxGeometry x="362" y="380" width="80" height="50" as="geometry" />
        </mxCell>
        <mxCell id="qcqsX-OKh-i5RfkpB1eP-14" value="" style="edgeStyle=orthogonalEdgeStyle;rounded=0;orthogonalLoop=1;jettySize=auto;html=1;" edge="1" parent="1" source="qcqsX-OKh-i5RfkpB1eP-10" target="qcqsX-OKh-i5RfkpB1eP-13">
          <mxGeometry relative="1" as="geometry" />
        </mxCell>
        <mxCell id="qcqsX-OKh-i5RfkpB1eP-10" value="X1=(-B+D)/2*A" style="whiteSpace=wrap;html=1;" vertex="1" parent="1">
          <mxGeometry x="462" y="450" width="120" height="30" as="geometry" />
        </mxCell>
        <mxCell id="qcqsX-OKh-i5RfkpB1eP-12" value="Да" style="text;html=1;resizable=0;autosize=1;align=center;verticalAlign=middle;points=[];fillColor=none;strokeColor=none;rounded=0;" vertex="1" parent="1">
          <mxGeometry x="467" y="380" width="30" height="20" as="geometry" />
        </mxCell>
        <mxCell id="qcqsX-OKh-i5RfkpB1eP-24" value="" style="edgeStyle=orthogonalEdgeStyle;rounded=0;orthogonalLoop=1;jettySize=auto;html=1;" edge="1" parent="1" source="qcqsX-OKh-i5RfkpB1eP-13" target="qcqsX-OKh-i5RfkpB1eP-23">
          <mxGeometry relative="1" as="geometry" />
        </mxCell>
        <mxCell id="qcqsX-OKh-i5RfkpB1eP-13" value="X2=(-B-D)/2*A" style="whiteSpace=wrap;html=1;" vertex="1" parent="1">
          <mxGeometry x="462" y="500" width="120" height="30" as="geometry" />
        </mxCell>
        <mxCell id="qcqsX-OKh-i5RfkpB1eP-20" value="" style="edgeStyle=orthogonalEdgeStyle;rounded=0;orthogonalLoop=1;jettySize=auto;html=1;" edge="1" parent="1" source="qcqsX-OKh-i5RfkpB1eP-15" target="qcqsX-OKh-i5RfkpB1eP-19">
          <mxGeometry relative="1" as="geometry">
            <Array as="points">
              <mxPoint x="370" y="465" />
            </Array>
          </mxGeometry>
        </mxCell>
        <mxCell id="qcqsX-OKh-i5RfkpB1eP-28" value="" style="edgeStyle=orthogonalEdgeStyle;rounded=0;orthogonalLoop=1;jettySize=auto;html=1;" edge="1" parent="1" source="qcqsX-OKh-i5RfkpB1eP-15" target="qcqsX-OKh-i5RfkpB1eP-27">
          <mxGeometry relative="1" as="geometry">
            <Array as="points">
              <mxPoint x="195" y="465" />
            </Array>
          </mxGeometry>
        </mxCell>
        <mxCell id="qcqsX-OKh-i5RfkpB1eP-15" value="D=0" style="rhombus;whiteSpace=wrap;html=1;" vertex="1" parent="1">
          <mxGeometry x="250" y="440" width="80" height="50" as="geometry" />
        </mxCell>
        <mxCell id="qcqsX-OKh-i5RfkpB1eP-26" value="" style="edgeStyle=orthogonalEdgeStyle;rounded=0;orthogonalLoop=1;jettySize=auto;html=1;" edge="1" parent="1" source="qcqsX-OKh-i5RfkpB1eP-19" target="qcqsX-OKh-i5RfkpB1eP-25">
          <mxGeometry relative="1" as="geometry" />
        </mxCell>
        <mxCell id="qcqsX-OKh-i5RfkpB1eP-19" value="X=(-B)/2*A" style="whiteSpace=wrap;html=1;" vertex="1" parent="1">
          <mxGeometry x="310" y="500" width="120" height="30" as="geometry" />
        </mxCell>
        <mxCell id="qcqsX-OKh-i5RfkpB1eP-35" style="edgeStyle=orthogonalEdgeStyle;rounded=0;orthogonalLoop=1;jettySize=auto;html=1;exitX=0.5;exitY=1;exitDx=0;exitDy=0;" edge="1" parent="1" source="qcqsX-OKh-i5RfkpB1eP-23">
          <mxGeometry relative="1" as="geometry">
            <mxPoint x="522" y="640" as="targetPoint" />
          </mxGeometry>
        </mxCell>
        <mxCell id="qcqsX-OKh-i5RfkpB1eP-23" value="Вывод X1 X2" style="shape=parallelogram;perimeter=parallelogramPerimeter;whiteSpace=wrap;html=1;fixedSize=1;" vertex="1" parent="1">
          <mxGeometry x="462" y="560" width="120" height="25" as="geometry" />
        </mxCell>
        <mxCell id="qcqsX-OKh-i5RfkpB1eP-34" style="edgeStyle=orthogonalEdgeStyle;rounded=0;orthogonalLoop=1;jettySize=auto;html=1;exitX=0.5;exitY=1;exitDx=0;exitDy=0;" edge="1" parent="1" source="qcqsX-OKh-i5RfkpB1eP-25">
          <mxGeometry relative="1" as="geometry">
            <mxPoint x="370" y="640" as="targetPoint" />
          </mxGeometry>
        </mxCell>
        <mxCell id="qcqsX-OKh-i5RfkpB1eP-25" value="Вывод X" style="shape=parallelogram;perimeter=parallelogramPerimeter;whiteSpace=wrap;html=1;fixedSize=1;" vertex="1" parent="1">
          <mxGeometry x="310" y="560" width="120" height="25" as="geometry" />
        </mxCell>
        <mxCell id="qcqsX-OKh-i5RfkpB1eP-33" style="edgeStyle=orthogonalEdgeStyle;rounded=0;orthogonalLoop=1;jettySize=auto;html=1;exitX=0.5;exitY=1;exitDx=0;exitDy=0;" edge="1" parent="1" source="qcqsX-OKh-i5RfkpB1eP-27">
          <mxGeometry relative="1" as="geometry">
            <mxPoint x="195" y="640" as="targetPoint" />
          </mxGeometry>
        </mxCell>
        <mxCell id="qcqsX-OKh-i5RfkpB1eP-27" value="Вывод &quot;Корней нет&quot;" style="shape=parallelogram;perimeter=parallelogramPerimeter;whiteSpace=wrap;html=1;fixedSize=1;" vertex="1" parent="1">
          <mxGeometry x="130" y="560" width="130" height="25" as="geometry" />
        </mxCell>
        <mxCell id="qcqsX-OKh-i5RfkpB1eP-36" value="" style="endArrow=none;html=1;" edge="1" parent="1">
          <mxGeometry width="50" height="50" relative="1" as="geometry">
            <mxPoint x="190" y="640" as="sourcePoint" />
            <mxPoint x="530" y="640" as="targetPoint" />
          </mxGeometry>
        </mxCell>
        <mxCell id="qcqsX-OKh-i5RfkpB1eP-37" value="" style="endArrow=classic;html=1;" edge="1" parent="1">
          <mxGeometry width="50" height="50" relative="1" as="geometry">
            <mxPoint x="410" y="640" as="sourcePoint" />
            <mxPoint x="410" y="690" as="targetPoint" />
          </mxGeometry>
        </mxCell>
        <mxCell id="qcqsX-OKh-i5RfkpB1eP-38" value="Конец" style="rounded=1;whiteSpace=wrap;html=1;arcSize=50;" vertex="1" parent="1">
          <mxGeometry x="362" y="690" width="103" height="20" as="geometry" />
        </mxCell>
      </root>
    </mxGraphModel>
  </diagram>
</mxfile>
